<svg width="100" height="100" viewBox="0 0 100 100" fill="none" xmlns="http://www.w3.org/2000/svg">
<rect width="100" height="100" fill="#EDF6F9"/>
<path d="M22.2 63.56C20.5733 63.56 19.0667 63.16 17.68 62.36C16.2933 61.56 15.1733 60.4133 14.32 58.92C13.4933 57.4 13.08 55.5733 13.08 53.44V52.84C13.08 50.7333 13.4933 48.92 14.32 47.4C15.1467 45.88 16.2533 44.72 17.64 43.92C19.0267 43.12 20.5467 42.72 22.2 42.72C23.48 42.72 24.5467 42.88 25.4 43.2C26.28 43.52 27 43.9333 27.56 44.44C28.12 44.92 28.5467 45.4267 28.84 45.96H29.48V35H33.6V63H29.56V60.2H28.92C28.4133 61.0533 27.64 61.8267 26.6 62.52C25.5867 63.2133 24.12 63.56 22.2 63.56ZM23.36 59.96C25.1467 59.96 26.6133 59.3867 27.76 58.24C28.9333 57.0933 29.52 55.4533 29.52 53.32V52.96C29.52 50.8533 28.9467 49.2267 27.8 48.08C26.6533 46.9333 25.1733 46.36 23.36 46.36C21.6 46.36 20.1333 46.9333 18.96 48.08C17.8133 49.2267 17.24 50.8533 17.24 52.96V53.32C17.24 55.4533 17.8133 57.0933 18.96 58.24C20.1333 59.3867 21.6 59.96 23.36 59.96ZM48.905 63.56C46.9317 63.56 45.1717 63.16 43.625 62.36C42.105 61.5333 40.905 60.36 40.025 58.84C39.145 57.32 38.705 55.52 38.705 53.44V52.84C38.705 50.76 39.145 48.9733 40.025 47.48C40.905 45.96 42.105 44.7867 43.625 43.96C45.1717 43.1333 46.9317 42.72 48.905 42.72C50.8783 42.72 52.6383 43.1333 54.185 43.96C55.7317 44.7867 56.945 45.96 57.825 47.48C58.705 48.9733 59.145 50.76 59.145 52.84V53.44C59.145 55.52 58.705 57.32 57.825 58.84C56.945 60.36 55.7317 61.5333 54.185 62.36C52.6383 63.16 50.8783 63.56 48.905 63.56ZM48.905 59.88C50.7183 59.88 52.185 59.3067 53.305 58.16C54.4517 56.9867 55.025 55.3733 55.025 53.32V52.96C55.025 50.9067 54.465 49.3067 53.345 48.16C52.225 46.9867 50.745 46.4 48.905 46.4C47.1183 46.4 45.6517 46.9867 44.505 48.16C43.385 49.3067 42.825 50.9067 42.825 52.96V53.32C42.825 55.3733 43.385 56.9867 44.505 58.16C45.6517 59.3067 47.1183 59.88 48.905 59.88ZM64.2744 63V43.28H68.3944V63H64.2744ZM66.3544 40.6C65.5544 40.6 64.8744 40.3467 64.3144 39.84C63.781 39.3067 63.5144 38.6267 63.5144 37.8C63.5144 36.9733 63.781 36.3067 64.3144 35.8C64.8744 35.2667 65.5544 35 66.3544 35C67.181 35 67.861 35.2667 68.3944 35.8C68.9277 36.3067 69.1944 36.9733 69.1944 37.8C69.1944 38.6267 68.9277 39.3067 68.3944 39.84C67.861 40.3467 67.181 40.6 66.3544 40.6ZM81.9088 63C80.7088 63 79.7488 62.64 79.0288 61.92C78.3354 61.2 77.9888 60.24 77.9888 59.04V46.76H72.5488V43.28H77.9888V36.76H82.1088V43.28H87.9888V46.76H82.1088V58.32C82.1088 59.12 82.4821 59.52 83.2287 59.52H87.3488V63H81.9088Z" fill="black"/>
<ellipse cx="49" cy="53.5" rx="7" ry="7.5" fill="black"/>
<circle cx="45.5" cy="53.5" r="1.5" fill="#D9D9D9"/>
<circle cx="53.5" cy="51.5" r="1.5" fill="#D9D9D9"/>
<path d="M51 59.5C51 59.5 46.1142 61.0089 44.1845 59.1784C44.0665 59.0665 44 59 44 59" stroke="#EDF6F9"/>
</svg>
