<svg width="100" height="100" viewBox="0 0 100 100" fill="none" xmlns="http://www.w3.org/2000/svg">
<path d="M50 0C77.6142 0 100 22.3858 100 50C100 77.6142 77.6142 100 50 100H0V0H50ZM38.4922 65.1523L39.4922 66.8848C43.6344 74.0588 52.8082 76.5171 59.9824 72.375C67.1567 68.2329 69.6146 59.0591 65.4727 51.8848L64.4727 50.1523L38.4922 65.1523ZM29.7402 49.9951C27.6691 46.408 23.0823 45.179 19.4951 47.25C15.908 49.3211 14.679 53.9079 16.75 57.4951C18.8211 61.0823 23.4079 62.3113 26.9951 60.2402C30.5823 58.1692 31.8113 53.5823 29.7402 49.9951ZM68.7129 27.4951C66.6418 23.908 62.0549 22.679 58.4678 24.75C54.8806 26.8211 53.6516 31.4079 55.7227 34.9951C57.7937 38.5823 62.3806 39.8113 65.9678 37.7402C69.555 35.6692 70.784 31.0823 68.7129 27.4951Z" fill="#141414"/>
</svg>
